<svg xmlns="http://www.w3.org/2000/svg">
    <symbol id="setting" viewBox="0 0 14 14">
    <g>
        <path d="M12.6438 8.55473L11.7483 7.7891C11.7907 7.52934 11.8126 7.2641 11.8126 6.99887C11.8126 6.73363 11.7907 6.4684 11.7483 6.20863L12.6438 5.44301C12.7114 5.38519 12.7597 5.30817 12.7824 5.22221C12.8051 5.13624 12.8011 5.0454 12.771 4.96176L12.7587 4.92621C12.5121 4.23719 12.143 3.59845 11.669 3.04086L11.6444 3.01215C11.5869 2.94454 11.5103 2.89595 11.4246 2.87276C11.3389 2.84958 11.2483 2.85289 11.1645 2.88227L10.053 3.27738C9.64284 2.94106 9.18483 2.67582 8.68991 2.48988L8.47526 1.32777C8.45907 1.24033 8.41665 1.15989 8.35365 1.09713C8.29064 1.03437 8.21003 0.992262 8.12253 0.976407L8.08561 0.969571C7.37331 0.841055 6.62409 0.841055 5.91179 0.969571L5.87487 0.976407C5.78737 0.992262 5.70676 1.03437 5.64375 1.09713C5.58075 1.15989 5.53833 1.24033 5.52214 1.32777L5.30612 2.49535C4.81515 2.68133 4.35793 2.94642 3.95261 3.28012L2.83288 2.88227C2.74916 2.85266 2.65841 2.84922 2.5727 2.87242C2.48698 2.89562 2.41035 2.94436 2.353 3.01215L2.32839 3.04086C1.85499 3.59884 1.48589 4.23747 1.23874 4.92621L1.22643 4.96176C1.16491 5.13266 1.2155 5.32406 1.35358 5.44301L2.26003 6.21684C2.21764 6.47387 2.19714 6.73637 2.19714 6.9975C2.19714 7.26 2.21764 7.5225 2.26003 7.77817L1.35358 8.55199C1.28604 8.60982 1.23769 8.68683 1.21498 8.7728C1.19227 8.85876 1.19626 8.9496 1.22643 9.03324L1.23874 9.06879C1.4862 9.75785 1.85261 10.3936 2.32839 10.9541L2.353 10.9829C2.41049 11.0505 2.48712 11.0991 2.57279 11.1222C2.65845 11.1454 2.74913 11.1421 2.83288 11.1127L3.95261 10.7149C4.36003 11.0498 4.8153 11.3151 5.30612 11.4997L5.52214 12.6672C5.53833 12.7547 5.58075 12.8351 5.64375 12.8979C5.70676 12.9606 5.78737 13.0027 5.87487 13.0186L5.91179 13.0254C6.63063 13.1546 7.36676 13.1546 8.08561 13.0254L8.12253 13.0186C8.21003 13.0027 8.29064 12.9606 8.35365 12.8979C8.41665 12.8351 8.45907 12.7547 8.47526 12.6672L8.68991 11.5051C9.18463 11.3197 9.64522 11.0536 10.053 10.7176L11.1645 11.1127C11.2482 11.1423 11.339 11.1458 11.4247 11.1226C11.5104 11.0994 11.587 11.0506 11.6444 10.9829L11.669 10.9541C12.1448 10.3922 12.5112 9.75785 12.7587 9.06879L12.771 9.03324C12.8325 8.86508 12.7819 8.67367 12.6438 8.55473ZM10.7776 6.36996C10.8118 6.57641 10.8296 6.78832 10.8296 7.00024C10.8296 7.21215 10.8118 7.42406 10.7776 7.63051L10.6874 8.17875L11.7087 9.05238C11.5538 9.40907 11.3584 9.74672 11.1262 10.0586L9.85749 9.60883L9.42819 9.96156C9.10143 10.2295 8.73776 10.4401 8.34401 10.5877L7.82311 10.7832L7.57839 12.1094C7.19225 12.1532 6.80241 12.1532 6.41628 12.1094L6.17155 10.7805L5.65475 10.5823C5.26511 10.4346 4.9028 10.2241 4.57878 9.95746L4.14948 9.60336L2.87253 10.0573C2.64011 9.74418 2.44597 9.40649 2.29011 9.05102L3.32233 8.16918L3.23347 7.62231C3.20065 7.41859 3.18288 7.20805 3.18288 7.00024C3.18288 6.79106 3.19929 6.58188 3.23347 6.37816L3.32233 5.83129L2.29011 4.94945C2.4446 4.59262 2.64011 4.25629 2.87253 3.9432L4.14948 4.39711L4.57878 4.04301C4.9028 3.77641 5.26511 3.56586 5.65475 3.4182L6.17292 3.2227L6.41764 1.89379C6.80182 1.85004 7.19421 1.85004 7.57975 1.89379L7.82448 3.21996L8.34538 3.41547C8.73776 3.56313 9.1028 3.77367 9.42956 4.04164L9.85886 4.39438L11.1276 3.94457C11.36 4.25766 11.5542 4.59535 11.71 4.95082L10.6887 5.82445L10.7776 6.36996ZM7.00007 4.45727C5.67116 4.45727 4.59382 5.53461 4.59382 6.86352C4.59382 8.19242 5.67116 9.26977 7.00007 9.26977C8.32897 9.26977 9.40632 8.19242 9.40632 6.86352C9.40632 5.53461 8.32897 4.45727 7.00007 4.45727ZM8.08288 7.94633C7.94086 8.08876 7.77208 8.2017 7.58625 8.27866C7.40042 8.35562 7.2012 8.39508 7.00007 8.39477C6.59128 8.39477 6.2071 8.23481 5.91725 7.94633C5.77483 7.80431 5.66188 7.63553 5.58492 7.4497C5.50796 7.26387 5.4685 7.06465 5.46882 6.86352C5.46882 6.45473 5.62878 6.07055 5.91725 5.7807C6.2071 5.49086 6.59128 5.33227 7.00007 5.33227C7.40886 5.33227 7.79304 5.49086 8.08288 5.7807C8.22531 5.92272 8.33825 6.09151 8.41521 6.27734C8.49217 6.46317 8.53163 6.66238 8.53132 6.86352C8.53132 7.27231 8.37136 7.65649 8.08288 7.94633Z" fill="#8C8C8C"/>
    </g>
    </symbol>

    <symbol id="likeActive" viewBox="0 0 16 16">
    <g>
    <path d="M0.75 7.25005V12.9375C0.75 13.2141 0.973437 13.4375 1.25 13.4375H2.26562V6.75005H1.25C0.973437 6.75005 0.75 6.97349 0.75 7.25005ZM12.8422 7.33911C13.1047 6.99224 13.25 6.56724 13.25 6.12505C13.25 5.42349 12.8578 4.75786 12.2266 4.39067C12.0641 4.29535 11.879 4.24519 11.6906 4.24536H7.94219L8.03594 2.32505C8.05937 1.86099 7.89531 1.42036 7.575 1.08442C7.4187 0.918679 7.23 0.786828 7.02061 0.697053C6.81123 0.607279 6.58563 0.561497 6.35781 0.562548C5.54531 0.562548 4.82656 1.10942 4.61094 1.89224L3.27031 6.74849L3.26562 13.436H10.6422C10.7875 13.436 10.9266 13.4079 11.0562 13.3516C11.8 13.0344 12.2797 12.3079 12.2797 11.5016C12.2797 11.3047 12.2516 11.111 12.1953 10.9235C12.4578 10.5766 12.6031 10.1516 12.6031 9.70942C12.6031 9.51255 12.575 9.3188 12.5188 9.1313C12.7812 8.78442 12.9266 8.35942 12.9266 7.91724C12.9266 7.72036 12.8984 7.52661 12.8422 7.33911ZM11.8188 6.79692L11.4766 7.0938L11.6953 7.49224C11.7669 7.62297 11.804 7.76976 11.8031 7.9188C11.8031 8.17661 11.6922 8.42192 11.4969 8.59067L11.1547 8.88755L11.3719 9.28442C11.4434 9.41516 11.4805 9.56195 11.4797 9.71099C11.4797 9.9688 11.3687 10.2141 11.1734 10.3829L10.8313 10.6797L11.0484 11.0766C11.12 11.2073 11.1571 11.3541 11.1562 11.5032C11.1562 11.8532 10.95 12.1688 10.6313 12.3125H4.39062V6.9188C4.68125 5.8688 5.11562 4.2938 5.69531 2.19224C5.73581 2.04809 5.82198 1.92098 5.94087 1.82998C6.05977 1.73898 6.20497 1.689 6.35469 1.68755C6.47188 1.68599 6.58906 1.72192 6.68437 1.79224C6.83906 1.90786 6.92188 2.08286 6.9125 2.2688L6.7625 5.3688H11.675C11.9531 5.53911 12.125 5.82661 12.125 6.12505C12.125 6.38286 12.0141 6.62817 11.8188 6.79692Z" fill="#1890FF"/>
    </g>
    </symbol>

    <symbol id="like" viewBox="0 0 16 16">
    <g>
    <path d="M0.75 7.25005V12.9375C0.75 13.2141 0.973437 13.4375 1.25 13.4375H2.26562V6.75005H1.25C0.973437 6.75005 0.75 6.97349 0.75 7.25005ZM12.8422 7.33911C13.1047 6.99224 13.25 6.56724 13.25 6.12505C13.25 5.42349 12.8578 4.75786 12.2266 4.39067C12.0641 4.29535 11.879 4.24519 11.6906 4.24536H7.94219L8.03594 2.32505C8.05937 1.86099 7.89531 1.42036 7.575 1.08442C7.4187 0.918679 7.23 0.786828 7.02061 0.697053C6.81123 0.607279 6.58563 0.561497 6.35781 0.562548C5.54531 0.562548 4.82656 1.10942 4.61094 1.89224L3.27031 6.74849L3.26562 13.436H10.6422C10.7875 13.436 10.9266 13.4079 11.0562 13.3516C11.8 13.0344 12.2797 12.3079 12.2797 11.5016C12.2797 11.3047 12.2516 11.111 12.1953 10.9235C12.4578 10.5766 12.6031 10.1516 12.6031 9.70942C12.6031 9.51255 12.575 9.3188 12.5188 9.1313C12.7812 8.78442 12.9266 8.35942 12.9266 7.91724C12.9266 7.72036 12.8984 7.52661 12.8422 7.33911ZM11.8188 6.79692L11.4766 7.0938L11.6953 7.49224C11.7669 7.62297 11.804 7.76976 11.8031 7.9188C11.8031 8.17661 11.6922 8.42192 11.4969 8.59067L11.1547 8.88755L11.3719 9.28442C11.4434 9.41516 11.4805 9.56195 11.4797 9.71099C11.4797 9.9688 11.3687 10.2141 11.1734 10.3829L10.8313 10.6797L11.0484 11.0766C11.12 11.2073 11.1571 11.3541 11.1562 11.5032C11.1562 11.8532 10.95 12.1688 10.6313 12.3125H4.39062V6.9188C4.68125 5.8688 5.11562 4.2938 5.69531 2.19224C5.73581 2.04809 5.82198 1.92098 5.94087 1.82998C6.05977 1.73898 6.20497 1.689 6.35469 1.68755C6.47188 1.68599 6.58906 1.72192 6.68437 1.79224C6.83906 1.90786 6.92188 2.08286 6.9125 2.2688L6.7625 5.3688H11.675C11.9531 5.53911 12.125 5.82661 12.125 6.12505C12.125 6.38286 12.0141 6.62817 11.8188 6.79692Z" fill="#1890FF"/>
    </g>
    </symbol>

    <symbol id="share" viewBox="0 0 24 24">
    <g>
    <path d="M17.625 15.5625C16.957 15.5625 16.3406 15.7969 15.8578 16.1883L11.0016 12.675C11.0829 12.2287 11.0829 11.7713 11.0016 11.325L15.8578 7.81172C16.3406 8.20312 16.957 8.4375 17.625 8.4375C19.1766 8.4375 20.4375 7.17656 20.4375 5.625C20.4375 4.07344 19.1766 2.8125 17.625 2.8125C16.0734 2.8125 14.8125 4.07344 14.8125 5.625C14.8125 5.89687 14.85 6.15703 14.9227 6.40547L10.3102 9.74531C9.62578 8.83828 8.53828 8.25 7.3125 8.25C5.24062 8.25 3.5625 9.92812 3.5625 12C3.5625 14.0719 5.24062 15.75 7.3125 15.75C8.53828 15.75 9.62578 15.1617 10.3102 14.2547L14.9227 17.5945C14.85 17.843 14.8125 18.1055 14.8125 18.375C14.8125 19.9266 16.0734 21.1875 17.625 21.1875C19.1766 21.1875 20.4375 19.9266 20.4375 18.375C20.4375 16.8234 19.1766 15.5625 17.625 15.5625ZM17.625 4.40625C18.2977 4.40625 18.8438 4.95234 18.8438 5.625C18.8438 6.29766 18.2977 6.84375 17.625 6.84375C16.9523 6.84375 16.4062 6.29766 16.4062 5.625C16.4062 4.95234 16.9523 4.40625 17.625 4.40625ZM7.3125 14.0625C6.17578 14.0625 5.25 13.1367 5.25 12C5.25 10.8633 6.17578 9.9375 7.3125 9.9375C8.44922 9.9375 9.375 10.8633 9.375 12C9.375 13.1367 8.44922 14.0625 7.3125 14.0625ZM17.625 19.5938C16.9523 19.5938 16.4062 19.0477 16.4062 18.375C16.4062 17.7023 16.9523 17.1562 17.625 17.1562C18.2977 17.1562 18.8438 17.7023 18.8438 18.375C18.8438 19.0477 18.2977 19.5938 17.625 19.5938Z" fill="#595959"/>
    </g>
    </symbol>

    <symbol id="message" viewBox="0 0 24 24">
    <g>
    <path d="M10.8752 12C10.8752 12.2984 10.9937 12.5845 11.2047 12.7955C11.4157 13.0065 11.7018 13.125 12.0002 13.125C12.2985 13.125 12.5847 13.0065 12.7957 12.7955C13.0067 12.5845 13.1252 12.2984 13.1252 12C13.1252 11.7016 13.0067 11.4155 12.7957 11.2045C12.5847 10.9935 12.2985 10.875 12.0002 10.875C11.7018 10.875 11.4157 10.9935 11.2047 11.2045C10.9937 11.4155 10.8752 11.7016 10.8752 12ZM15.5627 12C15.5627 12.2984 15.6812 12.5845 15.8922 12.7955C16.1032 13.0065 16.3893 13.125 16.6877 13.125C16.986 13.125 17.2722 13.0065 17.4832 12.7955C17.6942 12.5845 17.8127 12.2984 17.8127 12C17.8127 11.7016 17.6942 11.4155 17.4832 11.2045C17.2722 10.9935 16.986 10.875 16.6877 10.875C16.3893 10.875 16.1032 10.9935 15.8922 11.2045C15.6812 11.4155 15.5627 11.7016 15.5627 12ZM6.18768 12C6.18768 12.2984 6.30621 12.5845 6.51718 12.7955C6.72816 13.0065 7.01431 13.125 7.31268 13.125C7.61105 13.125 7.8972 13.0065 8.10817 12.7955C8.31915 12.5845 8.43768 12.2984 8.43768 12C8.43768 11.7016 8.31915 11.4155 8.10817 11.2045C7.8972 10.9935 7.61105 10.875 7.31268 10.875C7.01431 10.875 6.72816 10.9935 6.51718 11.2045C6.30621 11.4155 6.18768 11.7016 6.18768 12ZM21.6846 7.93125C21.1549 6.67266 20.3955 5.54297 19.4275 4.57266C18.4663 3.60796 17.3253 2.84114 16.0689 2.31563C14.7799 1.77422 13.4111 1.5 12.0002 1.5H11.9533C10.533 1.50703 9.15721 1.78828 7.86346 2.34141C6.61789 2.87232 5.48752 3.64049 4.53534 4.60312C3.57674 5.57109 2.8244 6.69609 2.30409 7.95C1.76502 9.24844 1.49315 10.6289 1.50018 12.0492C1.50813 13.6769 1.89321 15.2806 2.62518 16.7344V20.2969C2.62518 20.5828 2.73877 20.857 2.94095 21.0592C3.14314 21.2614 3.41737 21.375 3.7033 21.375H7.26815C8.72196 22.107 10.3256 22.492 11.9533 22.5H12.0025C13.4064 22.5 14.7681 22.2281 16.0502 21.6961C17.3002 21.1768 18.437 20.419 19.3971 19.4648C20.365 18.5063 21.1267 17.3859 21.6588 16.1367C22.2119 14.843 22.4931 13.4672 22.5002 12.0469C22.5072 10.6195 22.2306 9.23438 21.6846 7.93125ZM18.1431 18.1969C16.5002 19.8234 14.3205 20.7188 12.0002 20.7188H11.9603C10.5471 20.7117 9.14315 20.3602 7.9033 19.6992L7.70643 19.5938H4.40643V16.2938L4.30096 16.0969C3.64002 14.857 3.28846 13.4531 3.28143 12.0398C3.27205 9.70312 4.16502 7.50937 5.8033 5.85703C7.43924 4.20469 9.62596 3.29062 11.9627 3.28125H12.0025C13.1744 3.28125 14.3111 3.50859 15.3822 3.95859C16.4275 4.39687 17.365 5.02734 18.1713 5.83359C18.9752 6.6375 19.608 7.57734 20.0463 8.62266C20.501 9.70547 20.7283 10.8539 20.7236 12.0398C20.7096 14.3742 19.7931 16.5609 18.1431 18.1969Z" fill="#595959"/>
    </g>
    </symbol>

    <symbol id="dots" viewBox="0 0 24 24">
    <g>
    <path d="M4.125 11.9766C4.125 12.1489 4.15895 12.3196 4.22491 12.4788C4.29087 12.6381 4.38755 12.7828 4.50942 12.9046C4.6313 13.0265 4.77599 13.1232 4.93523 13.1892C5.09447 13.2551 5.26514 13.2891 5.4375 13.2891C5.60986 13.2891 5.78053 13.2551 5.93977 13.1892C6.09901 13.1232 6.2437 13.0265 6.36558 12.9046C6.48745 12.7828 6.58413 12.6381 6.65009 12.4788C6.71605 12.3196 6.75 12.1489 6.75 11.9766C6.75 11.8042 6.71605 11.6335 6.65009 11.4743C6.58413 11.3151 6.48745 11.1704 6.36558 11.0485C6.2437 10.9266 6.09901 10.8299 5.93977 10.764C5.78053 10.698 5.60986 10.6641 5.4375 10.6641C5.26514 10.6641 5.09447 10.698 4.93523 10.764C4.77599 10.8299 4.6313 10.9266 4.50942 11.0485C4.38755 11.1704 4.29087 11.3151 4.22491 11.4743C4.15895 11.6335 4.125 11.8042 4.125 11.9766ZM10.6875 11.9766C10.6875 12.3247 10.8258 12.6585 11.0719 12.9046C11.3181 13.1508 11.6519 13.2891 12 13.2891C12.3481 13.2891 12.6819 13.1508 12.9281 12.9046C13.1742 12.6585 13.3125 12.3247 13.3125 11.9766C13.3125 11.6285 13.1742 11.2946 12.9281 11.0485C12.6819 10.8023 12.3481 10.6641 12 10.6641C11.6519 10.6641 11.3181 10.8023 11.0719 11.0485C10.8258 11.2946 10.6875 11.6285 10.6875 11.9766ZM17.25 11.9766C17.25 12.3247 17.3883 12.6585 17.6344 12.9046C17.8806 13.1508 18.2144 13.2891 18.5625 13.2891C18.9106 13.2891 19.2444 13.1508 19.4906 12.9046C19.7367 12.6585 19.875 12.3247 19.875 11.9766C19.875 11.6285 19.7367 11.2946 19.4906 11.0485C19.2444 10.8023 18.9106 10.6641 18.5625 10.6641C18.2144 10.6641 17.8806 10.8023 17.6344 11.0485C17.3883 11.2946 17.25 11.6285 17.25 11.9766Z" fill="#595959"/>
    </g>
    </symbol>

    <symbol id="clock" viewBox="0 0 16 16">
    <g>
    <path d="M8 1C4.13438 1 1 4.13438 1 8C1 11.8656 4.13438 15 8 15C11.8656 15 15 11.8656 15 8C15 4.13438 11.8656 1 8 1ZM8 13.8125C4.79063 13.8125 2.1875 11.2094 2.1875 8C2.1875 4.79063 4.79063 2.1875 8 2.1875C11.2094 2.1875 13.8125 4.79063 13.8125 8C13.8125 11.2094 11.2094 13.8125 8 13.8125Z" fill="#0050B3"/>
    <path d="M10.7297 9.97811L8.50156 8.36718V4.5C8.50156 4.43125 8.44531 4.375 8.37656 4.375H7.625C7.55625 4.375 7.5 4.43125 7.5 4.5V8.80311C7.5 8.84374 7.51875 8.88124 7.55156 8.90467L10.1359 10.789C10.1922 10.8297 10.2703 10.8172 10.3109 10.7625L10.7578 10.1531C10.7984 10.0953 10.7859 10.0172 10.7297 9.97811Z" fill="#0050B3"/>
   </g>
    </symbol>
    
</svg>
